<svg width="24" height="24" viewBox="0 0 24 24" fill="none" xmlns="http://www.w3.org/2000/svg">
<path d="M11.9988 0C11.0506 0 10.2846 0.670312 10.2846 1.5V2.4C6.37389 3.09375 3.4275 6.12187 3.4275 9.75V10.6313C3.4275 12.8344 2.50073 14.9625 0.829321 16.6125L0.432897 17.0016C-0.0170966 17.4422 -0.124238 18.075 0.148973 18.6141C0.422183 19.1531 1.03825 19.5 1.71324 19.5H22.2844C22.9594 19.5 23.5701 19.1531 23.8487 18.6141C24.1272 18.075 24.0147 17.4422 23.5647 17.0016L23.1683 16.6125C21.4969 14.9625 20.5701 12.8391 20.5701 10.6313V9.75C20.5701 6.12187 17.6237 3.09375 13.7131 2.4V1.5C13.7131 0.670312 12.947 0 11.9988 0ZM14.4256 23.1234C15.0684 22.5609 15.4273 21.7969 15.4273 21H11.9988H8.57029C8.57029 21.7969 8.92921 22.5609 9.57206 23.1234C10.2149 23.6859 11.0881 24 11.9988 24C12.9095 24 13.7827 23.6859 14.4256 23.1234Z" fill="#1F66A8"/>
</svg>
